<?xml version="1.0" encoding="UTF-8"?>
<svg xmlns="http://www.w3.org/2000/svg" xmlns:xlink="http://www.w3.org/1999/xlink" width="547.087pt" height="172.913pt" viewBox="0 0 547.087 172.913" version="1.1">
<defs>
<clipPath id="clip1">
  <path d="M 0 1 L 123 1 L 123 172.914062 L 0 172.914062 Z M 0 1 "/>
</clipPath>
<clipPath id="clip2">
  <path d="M 537 152 L 547.085938 152 L 547.085938 170 L 537 170 Z M 537 152 "/>
</clipPath>
</defs>
<g id="surface1">
<g clip-path="url(#clip1)" clip-rule="nonzero">
<path style=" stroke:none;fill-rule:nonzero;fill:rgb(24.499512%,25.1297%,26.753235%);fill-opacity:1;" d="M 49.964844 142.714844 C 54.84375 145.675781 58.105469 149.734375 62.277344 152 L 64.734375 153.351562 L 62.648438 155.230469 C 60.558594 157.140625 59.835938 159.054688 59.824219 160.875 C 59.820312 162.867188 60.777344 164.875 62.433594 166.398438 C 64.082031 167.921875 66.378906 168.914062 68.902344 168.914062 C 70.039062 168.914062 71.226562 168.71875 72.449219 168.265625 C 74.007812 167.753906 75.769531 165.621094 77.265625 163.121094 C 78.84375 160.625 79.988281 158.015625 81.953125 156.359375 C 85.101562 153.894531 88.421875 152.976562 90.78125 151.617188 C 100.703125 146.089844 105.566406 136.90625 111.027344 126.910156 C 114.011719 121.445312 115.101562 115.59375 115.101562 109.269531 C 115.152344 93.449219 108.019531 75.03125 107.980469 55.816406 C 107.980469 54.664062 108.007812 53.507812 108.0625 52.351562 L 108.136719 50.839844 L 109.609375 50.5 C 112.34375 49.875 114.53125 47.738281 116.066406 44.890625 C 117.597656 42.078125 118.363281 38.652344 118.355469 36.191406 L 118.355469 36.164062 C 118.347656 29.539062 115.5625 24.402344 111.632812 21.03125 C 108.378906 18.261719 104.4375 17.03125 100.359375 17.027344 C 90.683594 16.992188 80.757812 24.179688 79.898438 33.484375 C 79.738281 35.019531 79.679688 36.339844 79.679688 37.546875 C 79.671875 41.230469 80.261719 44.023438 80.269531 48.507812 C 80.269531 49.730469 80.226562 51.070312 80.109375 52.570312 L 79.730469 57.492188 L 76.574219 53.695312 C 69.832031 45.476562 59.738281 40.125 53.308594 29.699219 L 52.003906 27.5625 L 54.378906 26.761719 C 58.445312 25.511719 62.359375 19.617188 62.28125 14.300781 C 62.261719 11.574219 61.394531 9.117188 59.246094 7.191406 C 55.109375 7.386719 52.960938 8.890625 50.703125 10.976562 C 48.355469 13.167969 46.183594 16.203125 42.386719 18.171875 L 41.40625 18.671875 L 40.460938 18.117188 C 40.011719 17.824219 38.941406 17.597656 37.644531 17.472656 C 36.34375 17.320312 34.855469 17.242188 33.347656 16.726562 L 32.242188 16.34375 L 32.039062 15.1875 C 31.347656 11.058594 30.4375 7.292969 28.816406 5.328125 C 28.003906 5.164062 27.222656 5.089844 26.484375 5.089844 C 23.851562 5.097656 21.75 6.019531 20.222656 7.648438 C 18.703125 9.28125 17.71875 11.707031 17.714844 14.929688 C 17.714844 15.917969 17.8125 16.984375 18.019531 18.117188 L 18.3125 19.734375 L 16.78125 20.335938 C 11.839844 22.292969 9.101562 26.34375 7.363281 31.875 C 5.660156 37.375 5.167969 44.152344 4.804688 50.660156 C 4.65625 52.683594 4.082031 54.320312 4.113281 55.359375 C 4.113281 55.527344 4.125 55.675781 4.148438 55.816406 C 4.648438 58.664062 5.253906 59.203125 6.21875 59.878906 C 7.238281 60.5625 9.199219 61.0625 11.566406 62.460938 C 12.574219 63.074219 13.246094 63.84375 13.796875 64.464844 C 14.285156 65.039062 14.710938 65.488281 14.847656 65.585938 C 15.601562 65.816406 16.300781 65.910156 17 65.910156 C 19.847656 65.992188 22.933594 64.046875 27.191406 63.660156 L 30.019531 63.453125 L 29.261719 66.1875 C 27.746094 71.441406 23.75 73.949219 21.347656 76.734375 C 20.089844 79.992188 19.519531 83.4375 19.519531 86.871094 C 19.46875 97.375 25.023438 107.6875 31.597656 111.464844 C 31.785156 111.503906 32.179688 111.542969 32.660156 111.539062 C 33.050781 111.539062 33.488281 111.523438 33.953125 111.523438 C 34.929688 111.554688 36.09375 111.496094 37.386719 112.34375 L 38.21875 112.929688 L 38.234375 113.949219 C 38.316406 119.667969 39.582031 123.917969 41.027344 128.296875 L 41.738281 130.441406 L 39.519531 130.882812 C 36.617188 131.476562 35.1875 133.875 35.125 136.945312 C 35.121094 138.734375 35.707031 140.605469 36.832031 142.066406 C 38.316406 142.578125 40.28125 142.800781 42.507812 142.796875 C 44.441406 142.796875 46.566406 142.640625 48.757812 142.441406 L 49.402344 142.382812 Z M 68.902344 172.914062 C 61.777344 172.882812 55.890625 167.4375 55.824219 160.875 C 55.816406 158.601562 56.59375 156.257812 58.203125 154.160156 C 54.515625 151.625 51.71875 148.542969 48.460938 146.484375 C 46.445312 146.660156 44.441406 146.796875 42.507812 146.796875 C 39.777344 146.792969 37.179688 146.535156 34.867188 145.601562 L 34.429688 145.417969 L 34.117188 145.0625 C 32.101562 142.742188 31.128906 139.800781 31.125 136.945312 C 31.070312 133.226562 32.925781 129.339844 36.609375 127.644531 C 35.496094 124.097656 34.511719 120.238281 34.28125 115.527344 C 34.179688 115.523438 34.070312 115.523438 33.953125 115.523438 C 33.566406 115.523438 33.128906 115.535156 32.660156 115.535156 C 31.894531 115.527344 31.046875 115.523438 30.082031 115.175781 L 29.929688 115.117188 L 29.796875 115.042969 C 21.472656 110.234375 15.570312 98.808594 15.519531 86.871094 C 15.519531 82.882812 16.199219 78.824219 17.75 74.960938 L 17.867188 74.660156 L 18.078125 74.410156 C 20.09375 72.117188 22.1875 70.421875 23.664062 68.511719 C 21.726562 69.128906 19.570312 69.859375 17 69.910156 C 15.910156 69.910156 14.757812 69.753906 13.574219 69.378906 C 12.152344 68.855469 11.636719 68 11.007812 67.351562 C 10.429688 66.675781 9.886719 66.105469 9.503906 65.886719 C 7.710938 64.785156 5.972656 64.40625 4.089844 63.257812 C 2.152344 62.109375 0.65625 59.867188 0.195312 56.421875 C 0.136719 56.058594 0.113281 55.703125 0.113281 55.359375 C 0.148438 53.3125 0.773438 51.664062 0.8125 50.433594 C 1.191406 43.882812 1.648438 36.855469 3.542969 30.695312 C 5.261719 25.058594 8.371094 19.984375 13.851562 17.261719 C 13.757812 16.464844 13.714844 15.6875 13.714844 14.929688 C 13.707031 10.890625 14.992188 7.394531 17.296875 4.921875 C 19.59375 2.445312 22.878906 1.078125 26.484375 1.089844 C 27.734375 1.089844 29.023438 1.246094 30.34375 1.570312 L 29.863281 3.511719 L 30.34375 1.570312 L 30.894531 1.707031 L 31.292969 2.113281 C 34.070312 5.035156 34.976562 9.132812 35.738281 13.210938 C 36.414062 13.324219 37.222656 13.40625 38.078125 13.492188 C 39.121094 13.621094 40.25 13.738281 41.382812 14.152344 C 43.738281 12.699219 45.542969 10.390625 47.953125 8.074219 C 50.59375 5.515625 54.285156 3.136719 59.941406 3.171875 L 60.628906 3.171875 L 61.171875 3.589844 C 64.769531 6.363281 66.300781 10.402344 66.28125 14.300781 C 66.214844 20.425781 62.90625 26.554688 57.9375 29.484375 C 62.785156 36.394531 69.941406 41.132812 76.257812 47.453125 C 76.179688 43.945312 75.6875 41.324219 75.679688 37.546875 C 75.679688 36.207031 75.746094 34.742188 75.917969 33.074219 C 77.242188 21.164062 88.898438 13.0625 100.359375 13.027344 C 105.242188 13.023438 110.183594 14.539062 114.230469 17.988281 C 118.984375 22.039062 122.339844 28.335938 122.355469 36.085938 L 122.355469 36.191406 C 122.34375 39.40625 121.457031 43.300781 119.589844 46.789062 C 117.953125 49.828125 115.46875 52.628906 112.007812 53.941406 C 111.988281 54.566406 111.980469 55.191406 111.980469 55.816406 C 111.941406 74.050781 119.050781 92.332031 119.101562 109.269531 C 119.105469 116.042969 117.917969 122.652344 114.535156 128.828125 C 109.117188 138.707031 103.886719 148.871094 92.734375 155.105469 C 89.757812 156.746094 86.792969 157.597656 84.4375 159.492188 C 83.722656 159.964844 82.246094 162.574219 80.671875 165.214844 C 79.019531 167.84375 77.089844 170.757812 73.832031 172.019531 C 72.179688 172.628906 70.515625 172.914062 68.917969 172.914062 Z M 68.902344 172.914062 "/>
</g>
<path style=" stroke:none;fill-rule:nonzero;fill:rgb(24.499512%,25.1297%,26.753235%);fill-opacity:1;" d="M 184.074219 132.335938 C 170.808594 132.335938 159.878906 128.832031 151.292969 121.820312 C 142.703125 114.804688 138.410156 105.046875 138.410156 92.542969 L 138.410156 51.28125 C 138.410156 38.671875 142.675781 28.507812 151.210938 20.785156 C 159.746094 13.066406 170.589844 9.207031 183.746094 9.207031 C 195.921875 9.207031 206.035156 12.46875 214.082031 18.992188 C 222.125 25.515625 226.148438 34.160156 226.148438 44.921875 L 226.148438 50.792969 L 213.265625 50.792969 L 213.265625 46.554688 C 213.265625 38.726562 210.492188 32.527344 204.949219 27.960938 C 199.402344 23.394531 192.171875 21.113281 183.257812 21.113281 C 174.234375 21.113281 166.730469 23.804688 160.753906 29.183594 C 154.773438 34.566406 151.78125 41.878906 151.78125 51.121094 L 151.78125 90.914062 C 151.78125 99.828125 154.800781 106.976562 160.832031 112.359375 C 166.867188 117.742188 174.613281 120.433594 184.074219 120.433594 C 192.878906 120.433594 199.945312 118.148438 205.273438 113.582031 C 210.601562 109.015625 213.265625 102.765625 213.265625 94.828125 L 213.265625 92.382812 L 226.148438 92.382812 L 226.148438 96.621094 C 226.148438 107.605469 222.179688 116.300781 214.246094 122.714844 C 206.308594 129.132812 196.25 132.335938 184.074219 132.335938 "/>
<path style=" stroke:none;fill-rule:nonzero;fill:rgb(24.499512%,25.1297%,26.753235%);fill-opacity:1;" d="M 269.84375 130.871094 L 229.886719 11.164062 L 243.75 11.164062 L 276.53125 112.113281 L 276.691406 112.113281 L 309.960938 11.164062 L 323.824219 11.164062 L 283.214844 130.871094 Z M 269.84375 130.871094 "/>
<path style=" stroke:none;fill-rule:nonzero;fill:rgb(24.499512%,25.1297%,26.753235%);fill-opacity:1;" d="M 333.953125 130.21875 L 333.953125 11.164062 L 350.421875 11.164062 L 387.933594 84.0625 L 388.097656 84.0625 L 424.628906 11.164062 L 441.261719 11.164062 L 441.261719 130.21875 L 428.214844 130.21875 L 428.214844 34.648438 L 427.890625 34.648438 L 392.988281 102.65625 L 382.386719 102.65625 L 347.488281 34.8125 L 347 34.8125 L 347 130.21875 Z M 333.953125 130.21875 "/>
<path style=" stroke:none;fill-rule:nonzero;fill:rgb(24.499512%,25.1297%,26.753235%);fill-opacity:1;" d="M 472.101562 70.855469 L 497.867188 70.855469 C 507 70.855469 514.039062 68.816406 518.988281 64.738281 C 523.933594 60.660156 526.40625 54.542969 526.40625 46.390625 C 526.40625 38.34375 523.851562 32.3125 518.742188 28.289062 C 513.632812 24.265625 506.511719 22.253906 497.378906 22.253906 L 472.101562 22.253906 Z M 458.5625 130.21875 L 458.5625 11 L 500.804688 11 C 512.328125 11 521.703125 14.15625 528.933594 20.457031 C 536.164062 26.765625 539.78125 35.464844 539.78125 46.554688 C 539.78125 55.035156 537.277344 62.429688 532.277344 68.734375 C 527.277344 75.039062 520.046875 79.117188 510.589844 80.964844 L 545.164062 130.21875 L 530.160156 130.21875 L 496.5625 82.105469 L 472.101562 82.105469 L 472.101562 130.21875 Z M 458.5625 130.21875 "/>
<path style=" stroke:none;fill-rule:nonzero;fill:rgb(24.499512%,25.1297%,26.753235%);fill-opacity:1;" d="M 148.507812 165.542969 C 146.601562 165.542969 145.03125 165.039062 143.796875 164.03125 C 142.5625 163.023438 141.945312 161.621094 141.945312 159.824219 L 141.945312 153.894531 C 141.945312 152.082031 142.558594 150.621094 143.785156 149.511719 C 145.011719 148.402344 146.570312 147.847656 148.460938 147.847656 C 150.210938 147.847656 151.664062 148.316406 152.824219 149.253906 C 153.976562 150.191406 154.554688 151.433594 154.554688 152.980469 L 154.554688 153.824219 L 152.703125 153.824219 L 152.703125 153.214844 C 152.703125 152.089844 152.304688 151.199219 151.507812 150.542969 C 150.710938 149.886719 149.671875 149.558594 148.390625 149.558594 C 147.09375 149.558594 146.015625 149.945312 145.15625 150.71875 C 144.296875 151.492188 143.867188 152.542969 143.867188 153.871094 L 143.867188 159.589844 C 143.867188 160.871094 144.300781 161.898438 145.167969 162.671875 C 146.035156 163.445312 147.148438 163.832031 148.507812 163.832031 C 149.773438 163.832031 150.789062 163.503906 151.554688 162.847656 C 152.324219 162.191406 152.703125 161.292969 152.703125 160.152344 L 152.703125 159.800781 L 154.554688 159.800781 L 154.554688 160.410156 C 154.554688 161.988281 153.984375 163.238281 152.84375 164.160156 C 151.703125 165.082031 150.257812 165.542969 148.507812 165.542969 "/>
<path style=" stroke:none;fill-rule:nonzero;fill:rgb(24.499512%,25.1297%,26.753235%);fill-opacity:1;" d="M 162.054688 164.019531 C 163.070312 164.019531 163.851562 163.746094 164.398438 163.199219 C 164.945312 162.652344 165.21875 161.847656 165.21875 160.785156 L 165.21875 157.574219 C 165.21875 156.636719 164.941406 155.882812 164.386719 155.3125 C 163.832031 154.742188 163.03125 154.457031 161.984375 154.457031 C 160.984375 154.457031 160.203125 154.738281 159.628906 155.300781 C 159.058594 155.863281 158.773438 156.652344 158.773438 157.667969 L 158.773438 160.855469 C 158.773438 161.824219 159.058594 162.59375 159.628906 163.164062 C 160.203125 163.734375 161.007812 164.019531 162.054688 164.019531 M 162.054688 165.542969 C 160.523438 165.542969 159.292969 165.140625 158.363281 164.335938 C 157.433594 163.53125 156.96875 162.386719 156.96875 160.902344 L 156.96875 157.785156 C 156.96875 156.253906 157.445312 155.066406 158.398438 154.222656 C 159.351562 153.378906 160.546875 152.957031 161.984375 152.957031 C 163.5 152.957031 164.722656 153.382812 165.652344 154.234375 C 166.582031 155.085938 167.046875 156.261719 167.046875 157.761719 L 167.046875 160.691406 C 167.046875 162.222656 166.578125 163.414062 165.628906 164.265625 C 164.683594 165.117188 163.496094 165.542969 162.054688 165.542969 "/>
<path style=" stroke:none;fill-rule:nonzero;fill:rgb(24.499512%,25.1297%,26.753235%);fill-opacity:1;" d="M 169.929688 165.238281 L 169.929688 153.191406 L 171.640625 153.191406 L 171.640625 155.277344 L 171.710938 155.277344 C 172.121094 154.511719 172.667969 153.929688 173.363281 153.53125 C 174.058594 153.132812 174.828125 152.933594 175.671875 152.933594 C 176.5625 152.933594 177.292969 153.152344 177.863281 153.589844 C 178.433594 154.027344 178.84375 154.605469 179.09375 155.324219 L 179.121094 155.324219 C 179.554688 154.558594 180.132812 153.96875 180.851562 153.554688 C 181.570312 153.140625 182.371094 152.933594 183.246094 152.933594 C 184.414062 152.933594 185.351562 153.277344 186.054688 153.964844 C 186.757812 154.652344 187.109375 155.582031 187.109375 156.753906 L 187.109375 165.238281 L 185.328125 165.238281 L 185.328125 157.574219 C 185.328125 155.511719 184.460938 154.480469 182.726562 154.480469 C 181.820312 154.480469 181.046875 154.8125 180.40625 155.476562 C 179.765625 156.140625 179.4375 156.964844 179.421875 157.949219 L 179.421875 165.238281 L 177.640625 165.238281 L 177.640625 157.527344 C 177.59375 155.496094 176.726562 154.480469 175.039062 154.480469 C 174.195312 154.480469 173.433594 154.792969 172.753906 155.417969 C 172.078125 156.042969 171.734375 156.894531 171.734375 157.972656 L 171.734375 165.238281 Z M 169.929688 165.238281 "/>
<path style=" stroke:none;fill-rule:nonzero;fill:rgb(24.499512%,25.1297%,26.753235%);fill-opacity:1;" d="M 195.617188 164.019531 C 196.433594 164.019531 197.140625 163.765625 197.738281 163.257812 C 198.339844 162.75 198.640625 162.019531 198.640625 161.066406 L 198.640625 157.269531 C 198.640625 156.441406 198.363281 155.765625 197.808594 155.242188 C 197.253906 154.71875 196.507812 154.457031 195.570312 154.457031 C 194.726562 154.457031 193.972656 154.78125 193.308594 155.429688 C 192.644531 156.078125 192.3125 156.949219 192.3125 158.042969 L 192.3125 160.597656 C 192.3125 161.613281 192.632812 162.4375 193.273438 163.070312 C 193.914062 163.703125 194.695312 164.019531 195.617188 164.019531 M 190.53125 169.902344 L 190.53125 153.191406 L 192.242188 153.191406 L 192.242188 155.160156 L 192.3125 155.160156 C 192.703125 154.410156 193.25 153.851562 193.953125 153.484375 C 194.65625 153.117188 195.367188 152.933594 196.085938 152.933594 C 197.398438 152.933594 198.457031 153.316406 199.265625 154.082031 C 200.066406 154.847656 200.46875 155.886719 200.46875 157.199219 L 200.46875 160.902344 C 200.46875 162.417969 200.023438 163.570312 199.132812 164.359375 C 198.242188 165.148438 197.15625 165.542969 195.875 165.542969 C 195.109375 165.542969 194.398438 165.339844 193.742188 164.933594 C 193.085938 164.527344 192.632812 163.988281 192.382812 163.316406 L 192.3125 163.316406 L 192.3125 169.902344 Z M 190.53125 169.902344 "/>
<path style=" stroke:none;fill-rule:nonzero;fill:rgb(24.499512%,25.1297%,26.753235%);fill-opacity:1;" d="M 207.101562 165.519531 C 205.867188 165.519531 204.917969 165.148438 204.253906 164.40625 C 203.589844 163.664062 203.257812 162.699219 203.257812 161.511719 L 203.257812 153.191406 L 205.039062 153.191406 L 205.039062 160.855469 C 205.039062 162.902344 205.921875 163.925781 207.6875 163.925781 C 208.625 163.925781 209.421875 163.589844 210.078125 162.917969 C 210.734375 162.246094 211.0625 161.363281 211.0625 160.269531 L 211.0625 153.191406 L 212.84375 153.191406 L 212.84375 165.238281 L 211.132812 165.238281 L 211.132812 163.152344 L 211.0625 163.152344 C 210.65625 163.917969 210.101562 164.503906 209.398438 164.910156 C 208.695312 165.316406 207.929688 165.519531 207.101562 165.519531 "/>
<path style=" stroke:none;fill-rule:nonzero;fill:rgb(24.499512%,25.1297%,26.753235%);fill-opacity:1;" d="M 220.085938 165.449219 C 219.195312 165.449219 218.472656 165.234375 217.917969 164.804688 C 217.363281 164.375 217.085938 163.675781 217.085938 162.707031 L 217.085938 154.644531 L 214.976562 154.644531 L 214.976562 153.214844 L 217.085938 153.214844 L 217.085938 149.441406 L 218.84375 149.441406 L 218.84375 153.214844 L 222.195312 153.214844 L 222.195312 154.644531 L 218.84375 154.644531 L 218.84375 162.261719 C 218.84375 162.839844 218.988281 163.246094 219.277344 163.480469 C 219.566406 163.714844 219.992188 163.832031 220.554688 163.832031 C 220.945312 163.832031 221.53125 163.753906 222.3125 163.597656 L 222.3125 165.144531 C 221.65625 165.347656 220.914062 165.449219 220.085938 165.449219 "/>
<path style=" stroke:none;fill-rule:nonzero;fill:rgb(24.499512%,25.1297%,26.753235%);fill-opacity:1;" d="M 225.875 158.324219 L 232.179688 158.324219 L 232.179688 157.621094 C 232.179688 156.683594 231.910156 155.917969 231.371094 155.324219 C 230.832031 154.730469 230.070312 154.433594 229.085938 154.433594 C 228.132812 154.433594 227.359375 154.753906 226.765625 155.394531 C 226.171875 156.035156 225.875 156.839844 225.875 157.808594 Z M 229.203125 165.542969 C 227.65625 165.542969 226.40625 165.128906 225.453125 164.300781 C 224.5 163.472656 224.023438 162.253906 224.023438 160.644531 L 224.023438 158.113281 C 224.023438 156.503906 224.507812 155.242188 225.476562 154.328125 C 226.445312 153.414062 227.679688 152.957031 229.179688 152.957031 C 230.570312 152.957031 231.714844 153.367188 232.613281 154.1875 C 233.511719 155.007812 233.960938 156.167969 233.960938 157.667969 L 233.960938 159.566406 L 225.875 159.566406 L 225.875 160.832031 C 225.875 161.816406 226.183594 162.59375 226.800781 163.164062 C 227.417969 163.734375 228.257812 164.019531 229.320312 164.019531 C 230.539062 164.019531 231.566406 163.503906 232.390625 162.472656 L 233.75 163.292969 C 232.796875 164.792969 231.28125 165.542969 229.203125 165.542969 "/>
<path style=" stroke:none;fill-rule:nonzero;fill:rgb(24.499512%,25.1297%,26.753235%);fill-opacity:1;" d="M 236.75 165.238281 L 236.75 153.191406 L 238.484375 153.191406 L 238.484375 155.605469 L 238.53125 155.605469 C 238.984375 154.714844 239.601562 154.058594 240.382812 153.636719 C 241.164062 153.214844 241.992188 153.003906 242.867188 153.003906 C 243.179688 153.003906 243.476562 153.027344 243.757812 153.074219 L 243.757812 154.761719 C 243.476562 154.699219 243.109375 154.667969 242.65625 154.667969 C 241.46875 154.667969 240.492188 155.019531 239.726562 155.722656 C 238.960938 156.425781 238.566406 157.402344 238.53125 158.652344 L 238.53125 165.238281 Z M 236.75 165.238281 "/>
<path style=" stroke:none;fill-rule:nonzero;fill:rgb(24.499512%,25.1297%,26.753235%);fill-opacity:1;" d="M 255.898438 165.332031 L 250.15625 148.128906 L 252.148438 148.128906 L 256.859375 162.636719 L 256.882812 162.636719 L 261.664062 148.128906 L 263.65625 148.128906 L 257.820312 165.332031 Z M 255.898438 165.332031 "/>
<path style=" stroke:none;fill-rule:nonzero;fill:rgb(24.499512%,25.1297%,26.753235%);fill-opacity:1;" d="M 265.671875 153.191406 L 267.453125 153.191406 L 267.453125 165.238281 L 265.671875 165.238281 Z M 265.671875 148.128906 L 267.453125 148.128906 L 267.453125 150.753906 L 265.671875 150.753906 Z M 265.671875 148.128906 "/>
<path style=" stroke:none;fill-rule:nonzero;fill:rgb(24.499512%,25.1297%,26.753235%);fill-opacity:1;" d="M 274.976562 165.519531 C 272.742188 165.519531 271.109375 164.878906 270.078125 163.597656 L 271.296875 162.589844 C 272.265625 163.589844 273.484375 164.089844 274.953125 164.089844 C 275.734375 164.089844 276.417969 163.898438 277.003906 163.515625 C 277.589844 163.132812 277.882812 162.605469 277.882812 161.933594 C 277.882812 161.292969 277.691406 160.835938 277.308594 160.5625 C 276.925781 160.289062 276.28125 160.066406 275.375 159.894531 L 273.992188 159.589844 C 271.726562 159.152344 270.59375 158.121094 270.59375 156.496094 C 270.59375 155.449219 270.992188 154.589844 271.789062 153.917969 C 272.585938 153.246094 273.632812 152.910156 274.929688 152.910156 C 276.851562 152.910156 278.25 153.410156 279.125 154.410156 L 277.90625 155.347656 C 277.109375 154.644531 276.085938 154.292969 274.835938 154.292969 C 274.101562 154.292969 273.503906 154.472656 273.042969 154.832031 C 272.582031 155.191406 272.351562 155.660156 272.351562 156.238281 C 272.351562 156.769531 272.5625 157.167969 272.984375 157.433594 C 273.40625 157.699219 274.070312 157.925781 274.976562 158.113281 L 276.78125 158.488281 C 278.75 158.941406 279.734375 159.980469 279.734375 161.605469 C 279.734375 162.839844 279.257812 163.800781 278.304688 164.488281 C 277.351562 165.175781 276.242188 165.519531 274.976562 165.519531 "/>
<path style=" stroke:none;fill-rule:nonzero;fill:rgb(24.499512%,25.1297%,26.753235%);fill-opacity:1;" d="M 282.476562 153.191406 L 284.257812 153.191406 L 284.257812 165.238281 L 282.476562 165.238281 Z M 282.476562 148.128906 L 284.257812 148.128906 L 284.257812 150.753906 L 282.476562 150.753906 Z M 282.476562 148.128906 "/>
<path style=" stroke:none;fill-rule:nonzero;fill:rgb(24.499512%,25.1297%,26.753235%);fill-opacity:1;" d="M 292.25 164.019531 C 293.265625 164.019531 294.046875 163.746094 294.59375 163.199219 C 295.140625 162.652344 295.414062 161.847656 295.414062 160.785156 L 295.414062 157.574219 C 295.414062 156.636719 295.136719 155.882812 294.582031 155.3125 C 294.027344 154.742188 293.226562 154.457031 292.179688 154.457031 C 291.179688 154.457031 290.394531 154.738281 289.824219 155.300781 C 289.253906 155.863281 288.96875 156.652344 288.96875 157.667969 L 288.96875 160.855469 C 288.96875 161.824219 289.253906 162.59375 289.824219 163.164062 C 290.394531 163.734375 291.203125 164.019531 292.25 164.019531 M 292.25 165.542969 C 290.71875 165.542969 289.488281 165.140625 288.558594 164.335938 C 287.628906 163.53125 287.164062 162.386719 287.164062 160.902344 L 287.164062 157.785156 C 287.164062 156.253906 287.640625 155.066406 288.59375 154.222656 C 289.546875 153.378906 290.742188 152.957031 292.179688 152.957031 C 293.695312 152.957031 294.917969 153.382812 295.847656 154.234375 C 296.777344 155.085938 297.242188 156.261719 297.242188 157.761719 L 297.242188 160.691406 C 297.242188 162.222656 296.769531 163.414062 295.824219 164.265625 C 294.878906 165.117188 293.6875 165.542969 292.25 165.542969 "/>
<path style=" stroke:none;fill-rule:nonzero;fill:rgb(24.499512%,25.1297%,26.753235%);fill-opacity:1;" d="M 300.148438 165.238281 L 300.148438 153.191406 L 301.859375 153.191406 L 301.859375 155.277344 L 301.929688 155.277344 C 302.320312 154.511719 302.867188 153.929688 303.570312 153.53125 C 304.273438 153.132812 305.039062 152.933594 305.867188 152.933594 C 307.117188 152.933594 308.074219 153.296875 308.738281 154.023438 C 309.402344 154.75 309.734375 155.714844 309.734375 156.917969 L 309.734375 165.238281 L 307.953125 165.238281 L 307.953125 157.574219 C 307.953125 155.511719 307.078125 154.480469 305.328125 154.480469 C 304.375 154.480469 303.570312 154.8125 302.914062 155.476562 C 302.257812 156.140625 301.929688 157.027344 301.929688 158.136719 L 301.929688 165.238281 Z M 300.148438 165.238281 "/>
<path style=" stroke:none;fill-rule:nonzero;fill:rgb(24.499512%,25.1297%,26.753235%);fill-opacity:1;" d="M 325.132812 155.136719 C 327.414062 154.433594 328.554688 153.207031 328.554688 151.457031 C 328.554688 150.722656 328.300781 150.15625 327.792969 149.757812 C 327.285156 149.359375 326.6875 149.160156 326 149.160156 C 325.0625 149.160156 324.335938 149.390625 323.820312 149.851562 C 323.304688 150.3125 323.046875 150.902344 323.046875 151.621094 C 323.046875 152.308594 323.53125 153.238281 324.5 154.410156 C 324.671875 154.582031 324.882812 154.824219 325.132812 155.136719 M 324.546875 164.042969 C 325.40625 164.042969 326.230469 163.867188 327.019531 163.515625 C 327.808594 163.164062 328.460938 162.667969 328.976562 162.027344 L 324.078125 156.683594 C 322.984375 157.011719 322.148438 157.539062 321.570312 158.265625 C 320.992188 158.992188 320.703125 159.761719 320.703125 160.574219 C 320.703125 161.589844 321.058594 162.421875 321.769531 163.070312 C 322.480469 163.71875 323.40625 164.042969 324.546875 164.042969 M 324.195312 165.566406 C 322.539062 165.566406 321.21875 165.109375 320.234375 164.195312 C 319.25 163.28125 318.757812 162.144531 318.757812 160.785156 C 318.757812 159.738281 319.113281 158.746094 319.824219 157.808594 C 320.535156 156.871094 321.640625 156.167969 323.140625 155.699219 C 321.71875 154.246094 321.007812 152.917969 321.007812 151.714844 C 321.007812 150.683594 321.402344 149.773438 322.191406 148.984375 C 322.980469 148.195312 324.242188 147.800781 325.976562 147.800781 C 327.335938 147.800781 328.398438 148.152344 329.164062 148.855469 C 329.929688 149.558594 330.3125 150.417969 330.3125 151.433594 C 330.3125 152.574219 329.917969 153.539062 329.128906 154.328125 C 328.339844 155.117188 327.304688 155.714844 326.023438 156.121094 L 330.21875 160.644531 C 330.734375 159.753906 331.164062 158.722656 331.507812 157.550781 L 333.054688 157.785156 C 332.742188 159.082031 332.171875 160.441406 331.34375 161.863281 L 334.507812 165.238281 L 332 165.238281 L 329.984375 163.128906 C 328.46875 164.753906 326.539062 165.566406 324.195312 165.566406 "/>
<path style=" stroke:none;fill-rule:nonzero;fill:rgb(24.499512%,25.1297%,26.753235%);fill-opacity:1;" d="M 342.875 165.238281 L 342.875 148.128906 L 345.242188 148.128906 L 350.632812 158.605469 L 350.65625 158.605469 L 355.90625 148.128906 L 358.296875 148.128906 L 358.296875 165.238281 L 356.421875 165.238281 L 356.421875 151.503906 L 356.375 151.503906 L 351.359375 161.277344 L 349.835938 161.277344 L 344.820312 151.527344 L 344.75 151.527344 L 344.75 165.238281 Z M 342.875 165.238281 "/>
<path style=" stroke:none;fill-rule:nonzero;fill:rgb(24.499512%,25.1297%,26.753235%);fill-opacity:1;" d="M 361.953125 153.191406 L 363.734375 153.191406 L 363.734375 165.238281 L 361.953125 165.238281 Z M 361.953125 148.128906 L 363.734375 148.128906 L 363.734375 150.753906 L 361.953125 150.753906 Z M 361.953125 148.128906 "/>
<path style=" stroke:none;fill-rule:nonzero;fill:rgb(24.499512%,25.1297%,26.753235%);fill-opacity:1;" d="M 365.867188 165.238281 L 370.132812 158.957031 L 366.21875 153.191406 L 368.304688 153.191406 L 371.1875 157.597656 L 374.09375 153.191406 L 376.132812 153.191406 L 372.21875 158.933594 L 376.4375 165.238281 L 374.398438 165.238281 L 371.164062 160.363281 L 367.90625 165.238281 Z M 365.867188 165.238281 "/>
<path style=" stroke:none;fill-rule:nonzero;fill:rgb(24.499512%,25.1297%,26.753235%);fill-opacity:1;" d="M 379.625 158.324219 L 385.929688 158.324219 L 385.929688 157.621094 C 385.929688 156.683594 385.660156 155.917969 385.121094 155.324219 C 384.582031 154.730469 383.820312 154.433594 382.835938 154.433594 C 381.882812 154.433594 381.109375 154.753906 380.515625 155.394531 C 379.921875 156.035156 379.625 156.839844 379.625 157.808594 Z M 382.953125 165.542969 C 381.40625 165.542969 380.15625 165.128906 379.203125 164.300781 C 378.25 163.472656 377.773438 162.253906 377.773438 160.644531 L 377.773438 158.113281 C 377.773438 156.503906 378.257812 155.242188 379.226562 154.328125 C 380.195312 153.414062 381.429688 152.957031 382.929688 152.957031 C 384.320312 152.957031 385.464844 153.367188 386.363281 154.1875 C 387.261719 155.007812 387.710938 156.167969 387.710938 157.667969 L 387.710938 159.566406 L 379.625 159.566406 L 379.625 160.832031 C 379.625 161.816406 379.933594 162.59375 380.550781 163.164062 C 381.167969 163.734375 382.007812 164.019531 383.070312 164.019531 C 384.289062 164.019531 385.3125 163.503906 386.140625 162.472656 L 387.5 163.292969 C 386.546875 164.792969 385.03125 165.542969 382.953125 165.542969 "/>
<path style=" stroke:none;fill-rule:nonzero;fill:rgb(24.499512%,25.1297%,26.753235%);fill-opacity:1;" d="M 394.90625 163.996094 C 395.75 163.996094 396.503906 163.664062 397.167969 163 C 397.832031 162.335938 398.164062 161.457031 398.164062 160.363281 L 398.164062 157.855469 C 398.164062 156.839844 397.84375 156.015625 397.203125 155.382812 C 396.5625 154.75 395.78125 154.433594 394.859375 154.433594 C 394.046875 154.433594 393.335938 154.6875 392.726562 155.195312 C 392.117188 155.703125 391.8125 156.433594 391.8125 157.386719 L 391.8125 161.183594 C 391.8125 162.011719 392.09375 162.6875 392.65625 163.210938 C 393.21875 163.734375 393.96875 163.996094 394.90625 163.996094 M 394.414062 165.542969 C 393.101562 165.542969 392.039062 165.15625 391.226562 164.382812 C 390.414062 163.609375 390.007812 162.566406 390.007812 161.253906 L 390.007812 157.550781 C 390.007812 156.035156 390.453125 154.886719 391.34375 154.105469 C 392.234375 153.324219 393.328125 152.933594 394.625 152.933594 C 395.375 152.933594 396.078125 153.132812 396.734375 153.53125 C 397.390625 153.929688 397.84375 154.464844 398.09375 155.136719 L 398.164062 155.136719 L 398.164062 148.128906 L 399.945312 148.128906 L 399.945312 165.238281 L 398.210938 165.238281 L 398.210938 163.128906 L 398.164062 163.128906 C 397.789062 163.910156 397.246094 164.507812 396.535156 164.921875 C 395.824219 165.335938 395.117188 165.542969 394.414062 165.542969 "/>
<path style=" stroke:none;fill-rule:nonzero;fill:rgb(24.499512%,25.1297%,26.753235%);fill-opacity:1;" d="M 411.3125 156.707031 L 415.015625 156.707031 C 416.328125 156.707031 417.339844 156.414062 418.050781 155.828125 C 418.761719 155.242188 419.117188 154.363281 419.117188 153.191406 C 419.117188 152.035156 418.75 151.167969 418.015625 150.589844 C 417.28125 150.011719 416.257812 149.722656 414.945312 149.722656 L 411.3125 149.722656 Z M 409.367188 165.238281 L 409.367188 148.105469 L 415.4375 148.105469 C 417.09375 148.105469 418.441406 148.558594 419.480469 149.464844 C 420.519531 150.371094 421.039062 151.621094 421.039062 153.214844 C 421.039062 154.433594 420.679688 155.496094 419.960938 156.402344 C 419.242188 157.308594 418.203125 157.894531 416.84375 158.160156 L 421.8125 165.238281 L 419.65625 165.238281 L 414.828125 158.324219 L 411.3125 158.324219 L 411.3125 165.238281 Z M 409.367188 165.238281 "/>
<path style=" stroke:none;fill-rule:nonzero;fill:rgb(24.499512%,25.1297%,26.753235%);fill-opacity:1;" d="M 425.351562 158.324219 L 431.65625 158.324219 L 431.65625 157.621094 C 431.65625 156.683594 431.386719 155.917969 430.847656 155.324219 C 430.308594 154.730469 429.546875 154.433594 428.5625 154.433594 C 427.609375 154.433594 426.835938 154.753906 426.242188 155.394531 C 425.648438 156.035156 425.351562 156.839844 425.351562 157.808594 Z M 428.679688 165.542969 C 427.132812 165.542969 425.882812 165.128906 424.929688 164.300781 C 423.976562 163.472656 423.5 162.253906 423.5 160.644531 L 423.5 158.113281 C 423.5 156.503906 423.984375 155.242188 424.953125 154.328125 C 425.921875 153.414062 427.15625 152.957031 428.65625 152.957031 C 430.046875 152.957031 431.191406 153.367188 432.089844 154.1875 C 432.988281 155.007812 433.4375 156.167969 433.4375 157.667969 L 433.4375 159.566406 L 425.351562 159.566406 L 425.351562 160.832031 C 425.351562 161.816406 425.660156 162.59375 426.277344 163.164062 C 426.894531 163.734375 427.734375 164.019531 428.796875 164.019531 C 430.015625 164.019531 431.039062 163.503906 431.867188 162.472656 L 433.226562 163.292969 C 432.273438 164.792969 430.757812 165.542969 428.679688 165.542969 "/>
<path style=" stroke:none;fill-rule:nonzero;fill:rgb(24.499512%,25.1297%,26.753235%);fill-opacity:1;" d="M 440.140625 164.089844 C 441.296875 164.089844 442.152344 163.800781 442.707031 163.222656 C 443.261719 162.644531 443.539062 161.855469 443.539062 160.855469 L 443.539062 159.683594 L 440.421875 159.683594 C 438.421875 159.683594 437.421875 160.425781 437.421875 161.910156 C 437.421875 162.613281 437.679688 163.152344 438.195312 163.527344 C 438.710938 163.902344 439.359375 164.089844 440.140625 164.089844 M 439.648438 165.496094 C 438.492188 165.496094 437.535156 165.183594 436.777344 164.558594 C 436.019531 163.933594 435.640625 163.082031 435.640625 162.003906 C 435.640625 160.785156 436.085938 159.875 436.976562 159.273438 C 437.867188 158.671875 438.914062 158.371094 440.117188 158.371094 L 443.539062 158.371094 L 443.539062 156.683594 C 443.539062 155.121094 442.578125 154.339844 440.65625 154.339844 C 439.859375 154.339844 439.183594 154.496094 438.628906 154.808594 C 438.074219 155.121094 437.796875 155.589844 437.796875 156.214844 L 437.796875 156.613281 L 436.179688 156.613281 L 436.179688 156.261719 C 436.179688 155.136719 436.621094 154.300781 437.503906 153.753906 C 438.386719 153.207031 439.460938 152.933594 440.726562 152.933594 C 442.085938 152.933594 443.195312 153.210938 444.054688 153.765625 C 444.914062 154.320312 445.34375 155.222656 445.34375 156.472656 L 445.34375 162.308594 C 445.34375 163.527344 445.398438 164.503906 445.507812 165.238281 L 443.75 165.238281 C 443.734375 165.128906 443.71875 164.960938 443.703125 164.734375 C 443.6875 164.507812 443.671875 164.265625 443.65625 164.007812 C 443.640625 163.75 443.632812 163.589844 443.632812 163.527344 L 443.585938 163.527344 C 443.117188 164.292969 442.5625 164.8125 441.921875 165.085938 C 441.28125 165.359375 440.523438 165.496094 439.648438 165.496094 "/>
<path style=" stroke:none;fill-rule:nonzero;fill:rgb(24.499512%,25.1297%,26.753235%);fill-opacity:1;" d="M 451.4375 165.378906 C 449.59375 165.378906 448.671875 164.347656 448.671875 162.285156 L 448.671875 148.105469 L 450.476562 148.105469 L 450.476562 162.355469 C 450.476562 162.808594 450.601562 163.171875 450.851562 163.445312 C 451.101562 163.71875 451.492188 163.855469 452.023438 163.855469 C 452.335938 163.855469 452.773438 163.808594 453.335938 163.714844 L 453.335938 165.097656 C 452.757812 165.285156 452.125 165.378906 451.4375 165.378906 "/>
<path style=" stroke:none;fill-rule:nonzero;fill:rgb(24.499512%,25.1297%,26.753235%);fill-opacity:1;" d="M 455.703125 153.191406 L 457.484375 153.191406 L 457.484375 165.238281 L 455.703125 165.238281 Z M 455.703125 148.128906 L 457.484375 148.128906 L 457.484375 150.753906 L 455.703125 150.753906 Z M 455.703125 148.128906 "/>
<path style=" stroke:none;fill-rule:nonzero;fill:rgb(24.499512%,25.1297%,26.753235%);fill-opacity:1;" d="M 464.796875 165.449219 C 463.90625 165.449219 463.183594 165.234375 462.628906 164.804688 C 462.074219 164.375 461.796875 163.675781 461.796875 162.707031 L 461.796875 154.644531 L 459.6875 154.644531 L 459.6875 153.214844 L 461.796875 153.214844 L 461.796875 149.441406 L 463.554688 149.441406 L 463.554688 153.214844 L 466.90625 153.214844 L 466.90625 154.644531 L 463.554688 154.644531 L 463.554688 162.261719 C 463.554688 162.839844 463.699219 163.246094 463.988281 163.480469 C 464.277344 163.714844 464.703125 163.832031 465.265625 163.832031 C 465.65625 163.832031 466.242188 163.753906 467.023438 163.597656 L 467.023438 165.144531 C 466.367188 165.347656 465.625 165.449219 464.796875 165.449219 "/>
<path style=" stroke:none;fill-rule:nonzero;fill:rgb(24.499512%,25.1297%,26.753235%);fill-opacity:1;" d="M 470.140625 170.113281 C 469.671875 170.113281 469.1875 170.058594 468.6875 169.949219 L 468.6875 168.402344 C 469.21875 168.527344 469.710938 168.589844 470.164062 168.589844 C 471.148438 168.589844 471.820312 168.089844 472.179688 167.089844 L 473 164.957031 L 468.476562 153.191406 L 470.398438 153.191406 L 473.890625 162.707031 L 473.9375 162.707031 L 477.265625 153.191406 L 479.09375 153.191406 L 473.914062 167.277344 C 473.242188 169.167969 471.984375 170.113281 470.140625 170.113281 "/>
<path style=" stroke:none;fill-rule:nonzero;fill:rgb(24.499512%,25.1297%,26.753235%);fill-opacity:1;" d="M 493.390625 165.542969 C 491.484375 165.542969 489.917969 165.039062 488.691406 164.03125 C 487.464844 163.023438 486.851562 161.621094 486.851562 159.824219 L 486.851562 153.871094 C 486.851562 152.058594 487.457031 150.59375 488.667969 149.476562 C 489.878906 148.359375 491.429688 147.800781 493.320312 147.800781 C 495.070312 147.800781 496.527344 148.253906 497.691406 149.160156 C 498.855469 150.066406 499.4375 151.292969 499.4375 152.839844 L 499.4375 153.636719 L 497.585938 153.636719 L 497.585938 153.074219 C 497.585938 151.949219 497.1875 151.074219 496.390625 150.449219 C 495.59375 149.824219 494.554688 149.511719 493.273438 149.511719 C 491.976562 149.511719 490.898438 149.902344 490.039062 150.683594 C 489.179688 151.464844 488.75 152.519531 488.75 153.847656 L 488.75 159.589844 C 488.75 160.871094 489.183594 161.898438 490.050781 162.671875 C 490.917969 163.445312 492.03125 163.832031 493.390625 163.832031 C 494.671875 163.832031 495.703125 163.503906 496.484375 162.847656 C 497.265625 162.191406 497.65625 161.300781 497.65625 160.175781 L 497.65625 158.253906 L 492.96875 158.253906 L 492.96875 156.519531 L 499.507812 156.519531 L 499.507812 160.410156 C 499.507812 162.003906 498.941406 163.257812 497.808594 164.171875 C 496.675781 165.085938 495.203125 165.542969 493.390625 165.542969 "/>
<path style=" stroke:none;fill-rule:nonzero;fill:rgb(24.499512%,25.1297%,26.753235%);fill-opacity:1;" d="M 502.742188 165.238281 L 502.742188 153.191406 L 504.476562 153.191406 L 504.476562 155.605469 L 504.523438 155.605469 C 504.976562 154.714844 505.59375 154.058594 506.375 153.636719 C 507.15625 153.214844 507.984375 153.003906 508.859375 153.003906 C 509.171875 153.003906 509.46875 153.027344 509.75 153.074219 L 509.75 154.761719 C 509.46875 154.699219 509.101562 154.667969 508.648438 154.667969 C 507.460938 154.667969 506.484375 155.019531 505.71875 155.722656 C 504.953125 156.425781 504.554688 157.402344 504.523438 158.652344 L 504.523438 165.238281 Z M 502.742188 165.238281 "/>
<path style=" stroke:none;fill-rule:nonzero;fill:rgb(24.499512%,25.1297%,26.753235%);fill-opacity:1;" d="M 516.359375 164.019531 C 517.375 164.019531 518.15625 163.746094 518.703125 163.199219 C 519.25 162.652344 519.523438 161.847656 519.523438 160.785156 L 519.523438 157.574219 C 519.523438 156.636719 519.246094 155.882812 518.691406 155.3125 C 518.136719 154.742188 517.335938 154.457031 516.289062 154.457031 C 515.289062 154.457031 514.503906 154.738281 513.933594 155.300781 C 513.363281 155.863281 513.078125 156.652344 513.078125 157.667969 L 513.078125 160.855469 C 513.078125 161.824219 513.363281 162.59375 513.933594 163.164062 C 514.503906 163.734375 515.3125 164.019531 516.359375 164.019531 M 516.359375 165.542969 C 514.828125 165.542969 513.597656 165.140625 512.667969 164.335938 C 511.738281 163.53125 511.273438 162.386719 511.273438 160.902344 L 511.273438 157.785156 C 511.273438 156.253906 511.75 155.066406 512.703125 154.222656 C 513.65625 153.378906 514.851562 152.957031 516.289062 152.957031 C 517.804688 152.957031 519.027344 153.382812 519.957031 154.234375 C 520.886719 155.085938 521.351562 156.261719 521.351562 157.761719 L 521.351562 160.691406 C 521.351562 162.222656 520.878906 163.414062 519.933594 164.265625 C 518.988281 165.117188 517.796875 165.542969 516.359375 165.542969 "/>
<path style=" stroke:none;fill-rule:nonzero;fill:rgb(24.499512%,25.1297%,26.753235%);fill-opacity:1;" d="M 527.984375 165.519531 C 526.75 165.519531 525.800781 165.148438 525.136719 164.40625 C 524.472656 163.664062 524.140625 162.699219 524.140625 161.511719 L 524.140625 153.191406 L 525.921875 153.191406 L 525.921875 160.855469 C 525.921875 162.902344 526.804688 163.925781 528.570312 163.925781 C 529.507812 163.925781 530.304688 163.589844 530.960938 162.917969 C 531.617188 162.246094 531.945312 161.363281 531.945312 160.269531 L 531.945312 153.191406 L 533.726562 153.191406 L 533.726562 165.238281 L 532.015625 165.238281 L 532.015625 163.152344 L 531.945312 163.152344 C 531.539062 163.917969 530.984375 164.503906 530.28125 164.910156 C 529.578125 165.316406 528.8125 165.519531 527.984375 165.519531 "/>
<g clip-path="url(#clip2)" clip-rule="nonzero">
<path style=" stroke:none;fill-rule:nonzero;fill:rgb(24.499512%,25.1297%,26.753235%);fill-opacity:1;" d="M 542.234375 164.019531 C 543.046875 164.019531 543.753906 163.765625 544.355469 163.257812 C 544.957031 162.75 545.257812 162.019531 545.257812 161.066406 L 545.257812 157.269531 C 545.257812 156.441406 544.980469 155.765625 544.425781 155.242188 C 543.871094 154.71875 543.125 154.457031 542.1875 154.457031 C 541.34375 154.457031 540.589844 154.78125 539.925781 155.429688 C 539.261719 156.078125 538.929688 156.949219 538.929688 158.042969 L 538.929688 160.597656 C 538.929688 161.613281 539.25 162.4375 539.890625 163.070312 C 540.53125 163.703125 541.3125 164.019531 542.234375 164.019531 M 537.148438 169.902344 L 537.148438 153.191406 L 538.859375 153.191406 L 538.859375 155.160156 L 538.929688 155.160156 C 539.320312 154.410156 539.867188 153.851562 540.570312 153.484375 C 541.273438 153.117188 541.984375 152.933594 542.703125 152.933594 C 544.015625 152.933594 545.074219 153.316406 545.878906 154.082031 C 546.683594 154.847656 547.085938 155.886719 547.085938 157.199219 L 547.085938 160.902344 C 547.085938 162.417969 546.640625 163.570312 545.75 164.359375 C 544.859375 165.148438 543.773438 165.542969 542.492188 165.542969 C 541.726562 165.542969 541.015625 165.339844 540.359375 164.933594 C 539.703125 164.527344 539.25 163.988281 539 163.316406 L 538.929688 163.316406 L 538.929688 169.902344 Z M 537.148438 169.902344 "/>
</g>
</g>
</svg>
